<svg xmlns="http://www.w3.org/2000/svg" xmlns:xlink="http://www.w3.org/1999/xlink"
    xmlns:sketch="http://www.bohemiancoding.com/sketch/ns" viewBox="0 0 60 60" version="1.1">
    <g stroke="none" stroke-width="1" fill="none" fill-rule="evenodd" sketch:type="MSPage">
        <g sketch:type="MSArtboardGroup" fill="#f3f4f6">
            <path
                d="M40.1523,34.3608 C40.2553,34.3938 40.3583,34.4098 40.4613,34.4098 C40.8823,34.4098 41.2743,34.1408 41.4123,33.7188 C42.0633,31.7138 42.1753,29.5618 41.7383,27.4968 C41.6233,26.9578 41.0973,26.6108 40.5513,26.7268 C40.0113,26.8408 39.6673,27.3718 39.7813,27.9118 C40.1473,29.6338 40.0523,31.4288 39.5093,33.1008 C39.3393,33.6258 39.6273,34.1898 40.1523,34.3608 L40.1523,34.3608 Z M44.0003,29.9998 C44.0003,37.7188 37.7193,43.9998 30.0003,43.9998 C27.4953,43.9998 25.0393,43.3308 22.8953,42.0648 C22.4203,41.7858 21.8063,41.9428 21.5253,42.4178 C21.2453,42.8938 21.4023,43.5068 21.8783,43.7878 C24.3303,45.2348 27.1373,45.9998 30.0003,45.9998 C38.8223,45.9998 46.0003,38.8218 46.0003,29.9998 C46.0003,26.0628 44.5723,22.3518 41.9863,19.4268 L59.7073,1.7068 C60.0973,1.3158 60.0973,0.6828 59.7073,0.2928 C59.3163,-0.0982 58.6833,-0.0982 58.2933,0.2928 L19.4213,39.1638 C15.4953,34.6478 14.8943,28.1288 17.9123,22.9298 C18.7843,23.6138 19.8713,23.9998 21.0003,23.9998 C23.7563,23.9998 26.0003,21.7568 26.0003,18.9998 C26.0003,18.2128 25.7973,17.4568 25.4513,16.7678 C26.9063,16.2678 28.4423,15.9998 30.0003,15.9998 C32.4893,15.9998 34.9323,16.6608 37.0663,17.9118 C37.5443,18.1908 38.1563,18.0308 38.4343,17.5548 C38.7143,17.0778 38.5543,16.4648 38.0783,16.1858 C35.6373,14.7558 32.8433,13.9998 30.0003,13.9998 C27.7993,13.9998 25.6383,14.4668 23.6443,15.3298 C23.6023,15.3428 23.5653,15.3608 23.5253,15.3788 C22.1853,15.9718 20.9223,16.7398 19.7833,17.6868 C19.3583,18.0398 19.2993,18.6698 19.6523,19.0948 C19.8503,19.3328 20.1353,19.4558 20.4233,19.4558 C20.6473,19.4558 20.8743,19.3798 21.0603,19.2248 C21.8503,18.5688 22.7123,18.0178 23.6173,17.5538 C23.8603,17.9938 24.0003,18.4868 24.0003,18.9998 C24.0003,20.6538 22.6543,21.9998 21.0003,21.9998 C20.0563,21.9998 19.1623,21.5498 18.5953,20.7948 C18.4463,20.5568 18.2013,20.3888 17.9153,20.3408 C17.5373,20.2768 17.1523,20.4388 16.9303,20.7538 C12.6323,26.8928 13.1333,35.0658 18.0093,40.5758 L0.2933,58.2928 C-0.0977,58.6828 -0.0977,59.3158 0.2933,59.7068 C0.4883,59.9018 0.7443,59.9998 1.0003,59.9998 C1.2563,59.9998 1.5113,59.9018 1.7073,59.7068 L40.5723,20.8408 C42.7823,23.3858 44.0003,26.5968 44.0003,29.9998 L44.0003,29.9998 Z M9.0303,17.9998 L9.0193,17.9998 C8.4673,17.9998 8.0253,18.4468 8.0253,18.9998 C8.0253,19.5518 8.4773,19.9998 9.0303,19.9998 C9.5823,19.9998 10.0303,19.5518 10.0303,18.9998 C10.0303,18.4468 9.5823,17.9998 9.0303,17.9998 L9.0303,17.9998 Z M31.0303,7.9998 C31.5823,7.9998 32.0303,7.5518 32.0303,6.9998 C32.0303,6.4468 31.5823,5.9998 31.0303,5.9998 L31.0193,5.9998 C30.4673,5.9998 30.0253,6.4468 30.0253,6.9998 C30.0253,7.5518 30.4773,7.9998 31.0303,7.9998 L31.0303,7.9998 Z M1.0003,11.9998 L4.0003,11.9998 L4.0003,14.9998 C4.0003,15.5518 4.4473,15.9998 5.0003,15.9998 C5.5523,15.9998 6.0003,15.5518 6.0003,14.9998 L6.0003,11.9998 L9.0003,11.9998 C9.5523,11.9998 10.0003,11.5518 10.0003,10.9998 C10.0003,10.4468 9.5523,9.9998 9.0003,9.9998 L6.0003,9.9998 L6.0003,6.9998 C6.0003,6.4468 5.5523,5.9998 5.0003,5.9998 C4.4473,5.9998 4.0003,6.4468 4.0003,6.9998 L4.0003,9.9998 L1.0003,9.9998 C0.4473,9.9998 0.0003,10.4468 0.0003,10.9998 C0.0003,11.5518 0.4473,11.9998 1.0003,11.9998 L1.0003,11.9998 Z M5.0003,35.9998 C5.5523,35.9998 6.0003,35.5518 6.0003,34.9998 L6.0003,33.9998 L7.0003,33.9998 C7.5523,33.9998 8.0003,33.5518 8.0003,32.9998 C8.0003,32.4468 7.5523,31.9998 7.0003,31.9998 L6.0003,31.9998 L6.0003,30.9998 C6.0003,30.4468 5.5523,29.9998 5.0003,29.9998 C4.4473,29.9998 4.0003,30.4468 4.0003,30.9998 L4.0003,31.9998 L3.0003,31.9998 C2.4473,31.9998 2.0003,32.4468 2.0003,32.9998 C2.0003,33.5518 2.4473,33.9998 3.0003,33.9998 L4.0003,33.9998 L4.0003,34.9998 C4.0003,35.5518 4.4473,35.9998 5.0003,35.9998 L5.0003,35.9998 Z M21.0003,3.9998 L22.0003,3.9998 L22.0003,4.9998 C22.0003,5.5518 22.4473,5.9998 23.0003,5.9998 C23.5523,5.9998 24.0003,5.5518 24.0003,4.9998 L24.0003,3.9998 L25.0003,3.9998 C25.5523,3.9998 26.0003,3.5518 26.0003,2.9998 C26.0003,2.4468 25.5523,1.9998 25.0003,1.9998 L24.0003,1.9998 L24.0003,0.9998 C24.0003,0.4468 23.5523,-0.0002 23.0003,-0.0002 C22.4473,-0.0002 22.0003,0.4468 22.0003,0.9998 L22.0003,1.9998 L21.0003,1.9998 C20.4473,1.9998 20.0003,2.4468 20.0003,2.9998 C20.0003,3.5518 20.4473,3.9998 21.0003,3.9998 L21.0003,3.9998 Z M31.0003,19.9998 C30.4483,19.9998 30.0003,20.4478 30.0003,20.9998 C30.0003,21.5508 30.4483,21.9998 31.0003,21.9998 C31.5513,21.9998 32.0003,21.5508 32.0003,20.9998 C32.0003,20.4478 31.5513,19.9998 31.0003,19.9998 L31.0003,19.9998 Z M31.0003,17.9998 C32.6543,17.9998 34.0003,19.3448 34.0003,20.9998 C34.0003,22.6538 32.6543,23.9998 31.0003,23.9998 C29.3453,23.9998 28.0003,22.6538 28.0003,20.9998 C28.0003,19.3448 29.3453,17.9998 31.0003,17.9998 L31.0003,17.9998 Z M22.0003,27.9998 C22.8473,27.9998 23.6063,28.5358 23.8863,29.3338 C24.0703,29.8558 24.6393,30.1298 25.1623,29.9458 C25.6823,29.7628 25.9573,29.1918 25.7733,28.6708 C25.2123,27.0728 23.6953,25.9998 22.0003,25.9998 C19.7943,25.9998 18.0003,27.7938 18.0003,29.9998 C18.0003,31.6938 19.0733,33.2108 20.6713,33.7738 C20.7803,33.8118 20.8923,33.8308 21.0033,33.8308 C21.4153,33.8308 21.8013,33.5728 21.9463,33.1628 C22.1303,32.6418 21.8563,32.0698 21.3353,31.8868 C20.5363,31.6058 20.0003,30.8468 20.0003,29.9998 C20.0003,28.8968 20.8973,27.9998 22.0003,27.9998 L22.0003,27.9998 Z M59.3803,41.0748 L55.3243,39.4078 C54.8153,39.1988 54.2283,39.4418 54.0193,39.9528 C53.8093,40.4638 54.0533,41.0478 54.5643,41.2578 L58.6203,42.9238 C58.7443,42.9758 58.8733,42.9998 59.0003,42.9998 C59.3923,42.9998 59.7663,42.7658 59.9243,42.3798 C60.1343,41.8688 59.8903,41.2848 59.3803,41.0748 L59.3803,41.0748 Z M51.6313,37.8778 L47.9353,36.3458 C47.4283,36.1348 46.8393,36.3768 46.6293,36.8868 C46.4183,37.3978 46.6603,37.9828 47.1703,38.1938 L50.8663,39.7258 C50.9913,39.7778 51.1213,39.8018 51.2493,39.8018 C51.6403,39.8018 52.0133,39.5698 52.1733,39.1848 C52.3833,38.6738 52.1413,38.0898 51.6313,37.8778 L51.6313,37.8778 Z M41.2543,54.5588 C41.0413,54.0488 40.4543,53.8108 39.9453,54.0218 C39.4353,54.2348 39.1953,54.8198 39.4083,55.3298 L41.0773,59.3228 C41.2373,59.7058 41.6093,59.9378 42.0003,59.9378 C42.1293,59.9378 42.2593,59.9118 42.3853,59.8598 C42.8953,59.6468 43.1353,59.0608 42.9233,58.5508 L41.2543,54.5588 Z M39.7253,50.8658 L38.1943,47.1688 C37.9833,46.6588 37.3953,46.4168 36.8873,46.6278 C36.3783,46.8398 36.1353,47.4238 36.3463,47.9348 L37.8783,51.6318 C38.0373,52.0168 38.4103,52.2498 38.8013,52.2498 C38.9293,52.2498 39.0593,52.2248 39.1843,52.1728 C39.6943,51.9618 39.9363,51.3768 39.7253,50.8658 L39.7253,50.8658 Z M20.0473,54.0188 C19.5403,53.8098 18.9513,54.0518 18.7423,54.5628 L17.0753,58.6188 C16.8653,59.1308 17.1093,59.7148 17.6203,59.9238 C17.7443,59.9758 17.8733,59.9998 18.0003,59.9998 C18.3923,59.9998 18.7663,59.7658 18.9243,59.3798 L20.5913,55.3238 C20.8013,54.8128 20.5573,54.2288 20.0473,54.0188 L20.0473,54.0188 Z M23.1133,46.6288 C22.6053,46.4188 22.0173,46.6588 21.8063,47.1698 L20.2743,50.8658 C20.0623,51.3768 20.3043,51.9618 20.8153,52.1728 C20.9403,52.2248 21.0703,52.2498 21.1983,52.2498 C21.5903,52.2498 21.9633,52.0168 22.1223,51.6318 L23.6543,47.9348 C23.8663,47.4248 23.6243,46.8398 23.1133,46.6288 L23.1133,46.6288 Z M59.9243,17.6188 C59.7143,17.1088 59.1293,16.8658 58.6203,17.0748 L54.5643,18.7428 C54.0523,18.9528 53.8093,19.5368 54.0193,20.0478 C54.1783,20.4338 54.5513,20.6678 54.9443,20.6678 C55.0713,20.6678 55.2003,20.6438 55.3243,20.5918 L59.3803,18.9238 C59.8913,18.7148 60.1343,18.1298 59.9243,17.6188 L59.9243,17.6188 Z M52.1733,20.8148 C51.9613,20.3038 51.3753,20.0638 50.8663,20.2738 L47.1713,21.8048 C46.6613,22.0168 46.4193,22.6018 46.6303,23.1118 C46.7893,23.4968 47.1623,23.7298 47.5533,23.7298 C47.6813,23.7298 47.8113,23.7048 47.9363,23.6528 L51.6313,22.1218 C52.1413,21.9098 52.3833,21.3248 52.1733,20.8148 L52.1733,20.8148 Z M44.4963,42.8738 C44.1053,42.4838 43.4723,42.4838 43.0823,42.8738 C42.6913,43.2648 42.6913,43.8978 43.0823,44.2878 L48.7383,49.9448 C48.9333,50.1398 49.1893,50.2378 49.4453,50.2378 C49.7013,50.2378 49.9573,50.1398 50.1523,49.9448 C50.5433,49.5538 50.5433,48.9218 50.1523,48.5308 L44.4963,42.8738 Z M30.0003,47.9998 C29.4473,47.9998 29.0003,48.4468 29.0003,48.9998 L29.0003,56.9998 C29.0003,57.5518 29.4473,57.9998 30.0003,57.9998 C30.5523,57.9998 31.0003,57.5518 31.0003,56.9998 L31.0003,48.9998 C31.0003,48.4468 30.5523,47.9998 30.0003,47.9998 L30.0003,47.9998 Z M48.0003,29.9998 C48.0003,29.4468 48.4473,28.9998 49.0003,28.9998 L57.0003,28.9998 C57.5523,28.9998 58.0003,29.4468 58.0003,29.9998 C58.0003,30.5518 57.5523,30.9998 57.0003,30.9998 L49.0003,30.9998 C48.4473,30.9998 48.0003,30.5518 48.0003,29.9998 L48.0003,29.9998 Z"
                sketch:type="MSShapeGroup" />
        </g>
    </g>
</svg>